# xmcd
#
# Track frame offsets:
# 150
# 19397
# 41547
# 69714
# 85586
# 115120
# 123582
# 143211
# 166517
# 178670
# 204120
# 221393
# 241086
# 270912
# 285173
# 304307
# 326128
#
# Disc length: 4432 seconds
#
#
# Revision: 0
# Processed by: cddbd v1.5.2PL0 Copyright (c) Steve Scherf et al.
# Submitted via: FreeRIP 2.96 
#
DISCID=e3114e11
DTITLE=Giovanni Boccaccio - Das Decameron CD3v6
DYEAR=2002
DGENRE=Speech
TTITLE0=31 Überleitung
TTITLE1=32 Die Gänse
TTITLE2=33 Die Gänse
TTITLE3=34 Die Gänse
TTITLE4=35 Die Gänse
TTITLE5=36 Überleitung
TTITLE6=37 Basilikum
TTITLE7=38 Basilikum
TTITLE8=39 Überleitung
TTITLE9=41 Der Sprung über den Sarg
TTITLE10=41 Überleitung
TTITLE11=42 Vogelfang
TTITLE12=43 Vogelfang
TTITLE13=44 Vogelfang
TTITLE14=45 Schaut auf den Eselskopf
TTITLE15=46 Schaut auf den Eselskopf
TTITLE16=47 Schaut auf den Eselskopf
EXTD=
EXTT0=gelesen von Kurt Flasch
EXTT1=gelesen von Peter Wapnewski
EXTT2=gelesen von Peter Wapnewski
EXTT3=gelesen von Peter Wapnewski
EXTT4=gelesen von Peter Wapnewski
EXTT5=gelesen von Kurt Flasch
EXTT6=gelesen von Peter Wapnewski und Imogen Kogge
EXTT7=gelesen von Peter Wapnewski und Imogen Kogge
EXTT8=gelesen von Kurt Flasch
EXTT9=gelesen von Peter Wapnewski und Imogen Kogge
EXTT10=gelesen von Kurt Flasch
EXTT11=gelesen von Peter Wapnewski und Roland Renner
EXTT12=gelesen von Peter Wapnewski und Roland Renner
EXTT13=gelesen von Peter Wapnewski und Roland Renner
EXTT14=gelesen von Peter Wapnewski und Imogen Kogge
EXTT15=gelesen von Peter Wapnewski und Imogen Kogge
EXTT16=gelesen von Peter Wapnewski und Imogen Kogge
PLAYORDER=
